<svg xmlns="http://www.w3.org/2000/svg" xmlns:xlink="http://www.w3.org/1999/xlink" viewBox="0 0 27.06 25.13">
    <defs>
        <style>.a{fill:none;}.b{clip-path:url(#a);}.c{fill:#231f20;}</style>
        <clipPath id="a" transform="translate(0 0)">
            <rect class="a" width="27.06" height="25.13" />
        </clipPath>
    </defs>
    <g class="b">
        <path class="c" d="M22.69,15.42H4.37L3.29,11.64H23.77Zm-2.21,7.71H6.57L4.94,17.42H22.12ZM26.06,9.64h-4.2L17.32.55A1,1,0,0,0,16,.11a1,1,0,0,0-.44,1.34l4.09,8.19H7.44l4.09-8.19A1,1,0,0,0,11.09.11,1,1,0,0,0,9.74.55L5.2,9.64H1a1,1,0,0,0,0,2h.21l1.14,4a1,1,0,0,0-.42.79,1,1,0,0,0,.93,1l2.2,7.72H22l2.21-7.72a1,1,0,0,0,.93-1,1,1,0,0,0-.42-.79l1.14-4h.21a1,1,0,1,0,0-2" transform="translate(0 0)" />
    </g>
</svg>